<?xml version="1.0" encoding="utf-8"?>
<!-- Generator: Adobe Illustrator 27.5.0, SVG Export Plug-In . SVG Version: 6.00 Build 0)  -->
<svg version="1.1" xmlns="http://www.w3.org/2000/svg" xmlns:xlink="http://www.w3.org/1999/xlink" x="0px" y="0px"
	 viewBox="0 0 1490.18 1117.09" style="enable-background:new 0 0 1490.18 1117.09;" xml:space="preserve">
<style type="text/css">
	.st0{display:none;}
	.st1{display:inline;fill:#2D2E30;}
	.st2{fill:#BCBDBF;}
	.st3{fill:#231F20;}
	.st4{display:inline;fill:#FFFFFF;}
	.st5{fill:#EDEDEE;}
	.st6{fill:#86888A;}
	.st7{fill:#E0E1E2;}
	.st8{display:inline;fill:url(#SVGID_1_);}
	.st9{display:inline;fill:url(#SVGID_00000151509580855734448520000001538266370826779791_);}
</style>
<g id="Layer_1">
</g>
<g id="Layer_6">
	<path d="M431.53,531.76l-3.66,35.07l-60.23,66.92l58.53-15.27l-31.05,87.26l54.69-37.35l128.06,67.01l-10.88,39.28l25.06,34.41
		l-34.17-0.44l-26.24-36.66h-48.32l-30.66,32.81h57.12l13.92,22.03l-12.96,21.14h-54.69l27.32,31.95h51.25l20.23-31.93l65.48-0.07
		l17.78,24.41l43.19-0.54l43.19,0.54l17.78-24.41l65.48,0.07l20.23,31.93h51.25l27.32-31.95h-54.69l-12.96-21.14l13.92-22.03h57.12
		l-30.66-32.81h-48.32l-26.24,36.66l-34.17,0.44l25.06-34.41l-10.88-39.28l128.06-67.01l54.69,37.35l-31.05-87.26l58.53,15.27
		l-60.23-66.92l-3.91-34.42L890.9,412l0,0l-74.49-226.44l-4.83,11.34l0,0l-0.16,0.01l0,0l4.99-11.35l-78.66,179.02l-0.6-0.15
		l-56.62-1.3l0.77,9.78l-0.23-9.78l-55.62,1.3l-0.6,0.15l-73.41-167.08l-0.08-0.58l-0.18-0.02l-0.02-0.05l-0.13,0.04l-4.44-11.04
		l-75.02,226.42l0.14-0.28L431.53,531.76 M681.41,373.14l-0.03,126.07l-0.15,0l-0.03-126.07l0.11,0L681.41,373.14z"/>
</g>
<g id="Layer_4" class="st0">
	<polygon class="st1" points="543.75,184.81 627.11,357.07 733.09,360.51 810.53,188.25 892.65,403.71 933.99,524.16 942.6,569.95 
		993.71,625.8 946.62,622.93 973.04,703.31 917.91,674.6 792.34,740.64 804.22,780.26 778.38,807.25 803.64,807.25 832.93,770.92 
		879.44,771.93 903.98,804.06 852.45,804.38 837.92,825.95 850.16,847.44 904.13,847.44 884.48,880.17 831.21,880.17 807.09,849.16 
		745.09,849.16 724.4,874.39 638.85,874.39 613.3,846.87 549.27,848.01 524.18,880.17 477.62,880.17 453.38,848.46 503.33,847.44 
		514.82,825.95 498.17,803.23 447.32,803.23 473.48,772.93 528.02,772.93 552.14,804.38 578.52,804.95 555.01,772.93 567.65,735.29 
		446.49,670.01 395.96,699.3 417.2,617.18 367.82,630.96 421.22,566.08 472.33,401.28 	"/>
</g>
<g id="Layer_3">
	<polygon class="st2" points="686.25,815.16 807.33,813.6 833.54,776.97 877.12,776.97 898.44,799.79 850.08,799.79 833.03,826.78 
		849.08,852.96 895.71,852.96 876.94,874.92 830.75,874.92 810.51,842.98 686.25,842.84 	"/>
	<polygon class="st2" points="677.34,815.16 556.26,813.6 530.04,776.97 486.46,776.97 465.15,799.79 513.5,799.79 530.56,826.78 
		514.51,852.96 467.87,852.96 486.64,874.92 532.84,874.92 553.07,842.98 677.34,842.84 	"/>
	<polygon class="st3" points="588.18,803.77 623.45,852.2 739.15,852.2 776.72,800.62 	"/>
</g>
<g id="Layer_5" class="st0">
	<polygon class="st4" points="585.17,506.91 910.09,499.39 924.53,539.78 890.58,652.99 748.14,644.51 725.54,866.9 643.25,866.9 
		601.34,633.43 477.56,629.93 441.05,529.65 469.81,486.84 	"/>
</g>
<g id="Layer_2">
	<polygon class="st5" points="788.67,389.86 885.78,412.68 815.5,198 	"/>
	<polyline class="st6" points="789.36,385.22 815.45,198.51 739.23,372.7 	"/>
	<path class="st7" d="M570.74,382.46"/>
	<polygon class="st3" points="681.3,772.17 725.54,772.93 708.85,843.45 681.3,843.45 	"/>
	<polygon class="st3" points="815.12,542.98 798.43,581.84 745.57,595.29 765.07,544.98 	"/>
	<polygon class="st2" points="927.49,537.52 818.56,542.49 800.42,586.82 742.56,601.77 778.85,732.83 913.15,662.55 957.63,692.94 
		928.56,611.25 980.1,624.7 929.88,568.9 	"/>
	<polygon class="st5" points="572.24,382.46 479.13,405.28 547.41,197.6 	"/>
	<polyline class="st6" points="571.5,384.31 546.41,197.6 621.63,371.78 	"/>
	<g>
		<polygon class="st6" points="926.9,535.51 883.48,405.28 736.49,369.42 681.41,368.14 681.3,772.17 725.54,772.93 704.45,584.32 
			751.28,511.84 		"/>
		<polygon class="st6" points="626.11,369.42 479.13,405.28 435.51,533.13 611.33,511.84 658.15,584.32 637.06,772.93 681.3,772.17 
			682.19,368.14 		"/>
	</g>
	<g>
		<polygon class="st5" points="766.85,545.26 927.49,537.52 926.5,535.19 753.96,515.89 709.52,585.42 730.27,773.67 709.55,843.46 
			681.32,843.31 681.3,866.78 721.97,867.29 790.16,773.67 742.61,601.99 		"/>
		<polygon class="st5" points="653.06,843.97 632.34,774.18 653.08,585.93 608.65,516.4 435.71,532.92 435.11,538.03 595.76,545.77 
			619.99,602.49 572.44,774.18 640.63,867.8 681.3,867.29 681.29,843.82 		"/>
	</g>
	<polygon class="st3" points="681.3,772.17 637.06,772.93 653.75,843.45 681.3,843.45 	"/>
	<polygon class="st3" points="547.49,542.98 564.18,581.84 617.04,595.29 597.54,544.98 	"/>
	<polygon class="st2" points="435.18,537.65 544.04,542.49 562.19,586.82 620.04,601.77 583.76,732.83 449.46,662.55 404.97,692.94 
		434.04,611.25 382.51,624.7 432.72,568.9 	"/>
</g>
<g id="Layer_7" class="st0">
	<linearGradient id="SVGID_1_" gradientUnits="userSpaceOnUse" x1="767.9807" y1="603.0818" x2="792.9268" y2="534.5431">
		<stop  offset="4.792333e-09" style="stop-color:#2E409A"/>
		<stop  offset="0.205" style="stop-color:#3953A5"/>
		<stop  offset="0.449" style="stop-color:#397DC0"/>
		<stop  offset="0.9368" style="stop-color:#70C16C"/>
	</linearGradient>
	<polygon class="st8" points="815.23,542.66 798.54,581.52 745.68,594.96 765.18,544.66 	"/>
	
		<linearGradient id="SVGID_00000027582947167479570350000006289347271004704168_" gradientUnits="userSpaceOnUse" x1="576.174" y1="585.8408" x2="591.921" y2="542.5763">
		<stop  offset="4.792333e-09" style="stop-color:#2E409A"/>
		<stop  offset="0.205" style="stop-color:#3953A5"/>
		<stop  offset="0.449" style="stop-color:#397DC0"/>
		<stop  offset="0.9368" style="stop-color:#70C16C"/>
	</linearGradient>
	<polygon style="display:inline;fill:url(#SVGID_00000027582947167479570350000006289347271004704168_);" points="547.6,542.66 
		564.29,581.52 617.15,594.96 597.65,544.66 	"/>
</g>
</svg>
